<?xml version="1.0" encoding="UTF-8" standalone="no"?>
<svg
   width="30"
   height="30"
   viewBox="0 0 30 30"
   fill="none"
   version="1.1"
   id="svg1"
   sodipodi:docname="voice-cricle.svg"
   inkscape:version="1.3.2 (091e20e, 2023-11-25, custom)"
   xmlns:inkscape="http://www.inkscape.org/namespaces/inkscape"
   xmlns:sodipodi="http://sodipodi.sourceforge.net/DTD/sodipodi-0.dtd"
   xmlns="http://www.w3.org/2000/svg"
   xmlns:svg="http://www.w3.org/2000/svg">
  <defs
     id="defs1" />
  <sodipodi:namedview
     id="namedview1"
     pagecolor="#ffffff"
     bordercolor="#000000"
     borderopacity="0.25"
     inkscape:showpageshadow="2"
     inkscape:pageopacity="0.0"
     inkscape:pagecheckerboard="0"
     inkscape:deskcolor="#d1d1d1"
     inkscape:zoom="20.283333"
     inkscape:cx="14.987675"
     inkscape:cy="15.012325"
     inkscape:window-width="2560"
     inkscape:window-height="1494"
     inkscape:window-x="-11"
     inkscape:window-y="-11"
     inkscape:window-maximized="1"
     inkscape:current-layer="svg1" />
  <path
     d="M 15,0 C 6.72,0 0,6.72 0,14.999999 0,23.28 6.72,30 15,30 23.28,30 30,23.28 30,14.999999 30,6.72 23.28,0 15,0 Z M 7.125,18.21 c 0,0.614999 -0.51,1.125 -1.125,1.125 -0.615,0 -1.125,-0.510001 -1.125,-1.125 v -6.42 c 0,-0.615 0.51,-1.124999 1.125,-1.124999 0.615,0 1.125,0.509999 1.125,1.124999 z m 4.5,2.144999 C 11.625,20.97 11.115,21.48 10.5,21.48 9.885,21.48 9.375,20.97 9.375,20.354999 V 9.6449997 c 0,-0.6150001 0.51,-1.1249996 1.125,-1.1249996 0.615,0 1.125,0.5099995 1.125,1.1249996 z M 16.125,22.5 c 0,0.615 -0.51,1.125 -1.125,1.125 -0.615,0 -1.125,-0.51 -1.125,-1.125 V 7.5000001 C 13.875,6.8850001 14.385,6.375 15,6.375 c 0.615,0 1.125,0.5100001 1.125,1.1250001 z m 4.5,-2.145001 C 20.625,20.97 20.115,21.48 19.5,21.48 c -0.615,0 -1.125,-0.51 -1.125,-1.125001 V 9.6449997 c 0,-0.6150001 0.51,-1.1249996 1.125,-1.1249996 0.615,0 1.125,0.5099995 1.125,1.1249996 z M 25.125,18.21 c 0,0.614999 -0.51,1.125 -1.125,1.125 -0.615,0 -1.125,-0.510001 -1.125,-1.125 v -6.42 c 0,-0.615 0.51,-1.124999 1.125,-1.124999 0.615,0 1.125,0.509999 1.125,1.124999 z"
     fill="#6b7280"
     id="path1"
     style="stroke-width:1.2" />
</svg>
